<mxfile host="app.diagrams.net" modified="2023-09-04T17:34:56.549Z" agent="Mozilla/5.0 (Macintosh; Intel Mac OS X 10_15_7) AppleWebKit/537.36 (KHTML, like Gecko) Chrome/116.0.0.0 Safari/537.36" version="21.7.2" etag="2_ANYk5tg7Va33B828TD" type="github">
  <diagram name="Page-1" id="5G_KMxUB8f0ofFPsRa44">
    <mxGraphModel>
      <root>
        <mxCell id="0" />
        <mxCell id="1" parent="0" />
      </root>
    </mxGraphModel>
  </diagram>
</mxfile>
